<svg width="48" height="48" viewBox="0 0 48 48" fill="none" xmlns="http://www.w3.org/2000/svg">
<g clip-path="url(#clip0_2_747)">
<rect width="48" height="48" rx="24" fill="#DDFDF3"/>
<rect x="4" y="16" width="40" height="40" rx="4" fill="#0AB27D"/>
<rect x="13" y="31" width="22" height="3" rx="1.5" fill="white"/>
<rect opacity="0.5" x="17" y="37" width="13" height="3" rx="1.5" fill="white"/>
<circle cx="24" cy="16" r="10" fill="#077954"/>
<path d="M25.6666 13.9167C25.6666 14.3587 25.4911 14.7826 25.1785 15.0952C24.8659 15.4077 24.442 15.5833 24 15.5833C23.558 15.5833 23.134 15.4077 22.8215 15.0952C22.5089 14.7826 22.3333 14.3587 22.3333 13.9167C22.3333 13.4746 22.5089 13.0507 22.8215 12.7382C23.134 12.4256 23.558 12.25 24 12.25C24.442 12.25 24.8659 12.4256 25.1785 12.7382C25.4911 13.0507 25.6666 13.4746 25.6666 13.9167V13.9167ZM24 16.8333C23.2264 16.8333 22.4846 17.1406 21.9376 17.6876C21.3906 18.2346 21.0833 18.9765 21.0833 19.75H26.9166C26.9166 18.9765 26.6094 18.2346 26.0624 17.6876C25.5154 17.1406 24.7735 16.8333 24 16.8333V16.8333Z" stroke="white" stroke-linecap="round" stroke-linejoin="round"/>
</g>
<defs>
<clipPath id="clip0_2_747">
<rect width="48" height="48" rx="24" fill="white"/>
</clipPath>
</defs>
</svg>