<svg width="48" height="48" viewBox="0 0 48 48" fill="none" xmlns="http://www.w3.org/2000/svg">
<rect width="48" height="48" rx="24" fill="#DDFDF3"/>
<rect x="4" y="8" width="40" height="40" rx="4" fill="#0AB27D"/>
<rect x="13" y="13" width="22" height="3" rx="1.5" fill="white"/>
<circle cx="24" cy="30" r="10" fill="#077954"/>
<g clip-path="url(#clip0_2_755)">
<path d="M24 34.5C26.4853 34.5 28.5 32.4853 28.5 30C28.5 27.5147 26.4853 25.5 24 25.5C21.5147 25.5 19.5 27.5147 19.5 30C19.5 32.4853 21.5147 34.5 24 34.5Z" stroke="white" stroke-linecap="round" stroke-linejoin="round"/>
<path d="M19.8 28.5H28.2" stroke="white" stroke-linecap="round" stroke-linejoin="round"/>
<path d="M19.8 31.5H28.2" stroke="white" stroke-linecap="round" stroke-linejoin="round"/>
<path d="M23.7498 25.5C22.9075 26.8498 22.4609 28.4089 22.4609 30C22.4609 31.5911 22.9075 33.1502 23.7498 34.5" stroke="white" stroke-linecap="round" stroke-linejoin="round"/>
<path d="M24.25 25.5C25.0924 26.8498 25.5389 28.4089 25.5389 30C25.5389 31.5911 25.0924 33.1502 24.25 34.5" stroke="white" stroke-linecap="round" stroke-linejoin="round"/>
</g>
<defs>
<clipPath id="clip0_2_755">
<rect width="12" height="12" fill="white" transform="translate(18 24)"/>
</clipPath>
</defs>
</svg>
