<svg width="48" height="48" viewBox="0 0 48 48" fill="none" xmlns="http://www.w3.org/2000/svg">
<g clip-path="url(#clip0_2_751)">
<rect width="48" height="48" rx="24" fill="#DDFDF3"/>
<rect x="14" y="14" width="40" height="40" fill="#0AB27D"/>
<rect x="20" y="28" width="22" height="3" rx="1.5" fill="white"/>
<rect opacity="0.5" x="20" y="34" width="13" height="3" rx="1.5" fill="white"/>
<circle cx="16" cy="16" r="10" fill="#077954"/>
<g clip-path="url(#clip1_2_751)">
<path d="M13.9167 18.9167C14.3769 18.9167 14.75 18.5436 14.75 18.0833C14.75 17.6231 14.3769 17.25 13.9167 17.25C13.4564 17.25 13.0833 17.6231 13.0833 18.0833C13.0833 18.5436 13.4564 18.9167 13.9167 18.9167Z" stroke="white" stroke-linecap="round" stroke-linejoin="round"/>
<path d="M18.0833 18.9167C18.5436 18.9167 18.9167 18.5436 18.9167 18.0833C18.9167 17.6231 18.5436 17.25 18.0833 17.25C17.6231 17.25 17.25 17.6231 17.25 18.0833C17.25 18.5436 17.6231 18.9167 18.0833 18.9167Z" stroke="white" stroke-linecap="round" stroke-linejoin="round"/>
<path d="M16 15.5833V13.5M13.0833 18.0833H12.25V15.5833L13.0833 13.5H16.8333L18.5 15.5833H18.9167C19.1377 15.5833 19.3496 15.6711 19.5059 15.8274C19.6622 15.9837 19.75 16.1957 19.75 16.4167V18.0833H18.9167H13.0833ZM17.25 18.0833H14.75H17.25ZM12.25 15.5833H18.5H12.25Z" stroke="white" stroke-linecap="round" stroke-linejoin="round"/>
</g>
</g>
<defs>
<clipPath id="clip0_2_751">
<rect width="48" height="48" rx="24" fill="white"/>
</clipPath>
<clipPath id="clip1_2_751">
<rect width="10" height="10" fill="white" transform="translate(11 11)"/>
</clipPath>
</defs>
</svg>
